<?xml version="1.0" encoding="UTF-8" standalone="no"?>
<svg
   height="200"
   width="200"
   version="1.1"
   id="svg20"
   sodipodi:docname="bijection.svg"
   inkscape:version="1.4.2 (ebf0e940, 2025-05-08)"
   inkscape:export-filename="bijection.svg"
   inkscape:export-xdpi="96"
   inkscape:export-ydpi="96"
   xmlns:inkscape="http://www.inkscape.org/namespaces/inkscape"
   xmlns:sodipodi="http://sodipodi.sourceforge.net/DTD/sodipodi-0.dtd"
   xmlns="http://www.w3.org/2000/svg"
   xmlns:svg="http://www.w3.org/2000/svg">
  <sodipodi:namedview
     id="namedview20"
     pagecolor="#ffffff"
     bordercolor="#000000"
     borderopacity="0.25"
     inkscape:showpageshadow="2"
     inkscape:pageopacity="0.0"
     inkscape:pagecheckerboard="0"
     inkscape:deskcolor="#d1d1d1"
     inkscape:export-bgcolor="#00000000"
     inkscape:zoom="2.2020395"
     inkscape:cx="110.35224"
     inkscape:cy="38.600579"
     inkscape:window-width="1472"
     inkscape:window-height="895"
     inkscape:window-x="0"
     inkscape:window-y="33"
     inkscape:window-maximized="1"
     inkscape:current-layer="svg20" />
  <title
     id="title1">Bijection</title>
  <defs
     id="defs1">
    <style
       type="text/css"
       id="style1">.ellipse  { stroke-width: 2.0; stroke: black; fill: none; }
    .setlabel { font-size: 18pt; text-anchor: middle; }
    .xelement { font-size: 14pt; text-anchor: middle; }
    .yelement { font-size: 14pt; text-anchor: middle; }
    .map      { stroke-width: 1.0; stroke: black; fill: none; marker-end: url(#arrow); }
    .arrow    { fill: black; }</style>
    <marker
       id="arrow"
       refY="4"
       refX="3"
       orient="auto"
       markerWidth="4"
       markerHeight="8">
      <polyline
         points="0 0 4 4 0 8"
         class="arrow"
         id="polyline1" />
    </marker>
    <filter
       style="color-interpolation-filters:sRGB;"
       inkscape:label="Invert"
       id="filter21"
       x="0"
       y="0"
       width="1"
       height="1">
      <feColorMatrix
         type="hueRotate"
         values="180"
         result="color1"
         id="feColorMatrix20" />
      <feColorMatrix
         values="0 0 -1 0 1 0 -1 0 0 1 -1 0 0 0 1 -0.21 -0.72 -0.07 2 0 "
         result="color2"
         id="feColorMatrix21" />
    </filter>
    <filter
       style="color-interpolation-filters:sRGB;"
       inkscape:label="Invert"
       id="filter23"
       x="0"
       y="0"
       width="1"
       height="1">
      <feColorMatrix
         type="hueRotate"
         values="180"
         result="color1"
         id="feColorMatrix22" />
      <feColorMatrix
         values="0 0 -1 0 1 0 -1 0 0 1 -1 0 0 0 1 -0.21 -0.72 -0.07 2 0 "
         result="color2"
         id="feColorMatrix23" />
    </filter>
    <filter
       style="color-interpolation-filters:sRGB;"
       inkscape:label="Invert"
       id="filter25"
       x="0"
       y="-0.038095238"
       width="1.0117647"
       height="1.0761905">
      <feColorMatrix
         type="hueRotate"
         values="180"
         result="color1"
         id="feColorMatrix24" />
      <feColorMatrix
         values="0 0 -1 0 1 0 -1 0 0 1 -1 0 0 0 1 -0.21 -0.72 -0.07 2 0 "
         result="color2"
         id="feColorMatrix25" />
    </filter>
    <filter
       style="color-interpolation-filters:sRGB;"
       inkscape:label="Invert"
       id="filter27"
       x="0"
       y="0"
       width="1"
       height="1">
      <feColorMatrix
         type="hueRotate"
         values="180"
         result="color1"
         id="feColorMatrix26" />
      <feColorMatrix
         values="0 0 -1 0 1 0 -1 0 0 1 -1 0 0 0 1 -0.21 -0.72 -0.07 2 0 "
         result="color2"
         id="feColorMatrix27" />
    </filter>
    <filter
       style="color-interpolation-filters:sRGB;"
       inkscape:label="Invert"
       id="filter29"
       x="-0.034188034"
       y="-0.028654578"
       width="1.0683761"
       height="1.0573092">
      <feColorMatrix
         type="hueRotate"
         values="180"
         result="color1"
         id="feColorMatrix28" />
      <feColorMatrix
         values="0 0 -1 0 1 0 -1 0 0 1 -1 0 0 0 1 -0.21 -0.72 -0.07 2 0 "
         result="fbSourceGraphic"
         id="feColorMatrix29" />
      <feColorMatrix
         result="fbSourceGraphicAlpha"
         in="fbSourceGraphic"
         values="0 0 0 -1 0 0 0 0 -1 0 0 0 0 -1 0 0 0 0 1 0"
         id="feColorMatrix38" />
      <feColorMatrix
         id="feColorMatrix39"
         type="hueRotate"
         values="180"
         result="color1"
         in="fbSourceGraphic" />
      <feColorMatrix
         id="feColorMatrix40"
         values="0 0 -1 0 1 0 -1 0 0 1 -1 0 0 0 1 -0.21 -0.72 -0.07 2 0 "
         result="fbSourceGraphic" />
      <feColorMatrix
         result="fbSourceGraphicAlpha"
         in="fbSourceGraphic"
         values="0 0 0 -1 0 0 0 0 -1 0 0 0 0 -1 0 0 0 0 1 0"
         id="feColorMatrix41" />
      <feColorMatrix
         id="feColorMatrix42"
         type="hueRotate"
         values="180"
         result="color1"
         in="fbSourceGraphic" />
      <feColorMatrix
         id="feColorMatrix43"
         values="-1 0 0 0 1 0 0 -1 0 1 0 -1 0 0 1 -0.21 -0.72 -0.07 2 0 "
         result="color2" />
    </filter>
    <filter
       style="color-interpolation-filters:sRGB;"
       inkscape:label="Invert"
       id="filter31"
       x="-0.0125"
       y="-0.00625"
       width="1.025"
       height="1.0125">
      <feColorMatrix
         type="hueRotate"
         values="180"
         result="color1"
         id="feColorMatrix30" />
      <feColorMatrix
         values="0 0 -1 0 1 0 -1 0 0 1 -1 0 0 0 1 -0.21 -0.72 -0.07 2 0 "
         result="color2"
         id="feColorMatrix31" />
    </filter>
    <filter
       style="color-interpolation-filters:sRGB;"
       inkscape:label="Invert"
       id="filter33"
       x="0"
       y="0"
       width="1"
       height="1">
      <feColorMatrix
         type="hueRotate"
         values="180"
         result="color1"
         id="feColorMatrix32" />
      <feColorMatrix
         values="0 0 -1 0 1 0 -1 0 0 1 -1 0 0 0 1 -0.21 -0.72 -0.07 2 0 "
         result="color2"
         id="feColorMatrix33" />
    </filter>
    <filter
       style="color-interpolation-filters:sRGB;"
       inkscape:label="Invert"
       id="filter35"
       x="0"
       y="0"
       width="1"
       height="1">
      <feColorMatrix
         type="hueRotate"
         values="180"
         result="color1"
         id="feColorMatrix34" />
      <feColorMatrix
         values="0 0 -1 0 1 0 -1 0 0 1 -1 0 0 0 1 -0.21 -0.72 -0.07 2 0 "
         result="color2"
         id="feColorMatrix35" />
    </filter>
    <filter
       style="color-interpolation-filters:sRGB;"
       inkscape:label="Invert"
       id="filter37"
       x="-0.0125"
       y="-0.00625"
       width="1.025"
       height="1.0125">
      <feColorMatrix
         type="hueRotate"
         values="180"
         result="color1"
         id="feColorMatrix36" />
      <feColorMatrix
         values="0 0 -1 0 1 0 -1 0 0 1 -1 0 0 0 1 -0.21 -0.72 -0.07 2 0 "
         result="color2"
         id="feColorMatrix37" />
    </filter>
  </defs>
  <ellipse
     rx="40"
     ry="80"
     class="ellipse"
     cy="110"
     cx="50"
     id="ellipse1"
     style="filter:url(#filter37)" />
  <text
     y="26"
     x="50"
     class="setlabel"
     id="text1"
     style="filter:url(#filter35)"><tspan
       id="tspan1">X</tspan></text>
  <g
     style="text-anchor:middle;filter:url(#filter33)"
     transform="translate(-8)"
     class="xelement"
     font-size="17.5px"
     id="g5">
    <text
       y="60"
       x="50"
       id="text2">1</text>
    <text
       y="95"
       x="50"
       id="text3">2</text>
    <text
       y="130"
       x="50"
       id="text4">3</text>
    <text
       y="165"
       x="50"
       id="text5">4</text>
  </g>
  <ellipse
     rx="40"
     ry="80"
     class="ellipse"
     cy="110"
     cx="150"
     id="ellipse5"
     style="filter:url(#filter31)" />
  <text
     y="26"
     x="150"
     class="setlabel"
     id="text6"
     style="fill:#ffffff;fill-opacity:1;stroke:#ffffff;stroke-opacity:1;filter:url(#filter29)"><tspan
       style="fill:#000000;stroke:#000000;stroke-opacity:0"
       id="tspan2">Y</tspan></text>
  <g
     style="text-anchor:middle;filter:url(#filter27)"
     transform="translate(8)"
     class="yelement"
     font-size="17.5px"
     id="g10">
    <text
       y="60"
       x="150"
       id="text7">D</text>
    <text
       y="95"
       x="150"
       id="text8">B</text>
    <text
       y="130"
       x="150"
       id="text9">C</text>
    <text
       y="165"
       x="150"
       id="text10">A</text>
  </g>
  <g
     stroke="#000"
     id="g13"
     style="filter:url(#filter25)">
    <line
       y2="53"
       marker-end="url(#arrow)"
       x2="142"
       y1="53"
       x1="57"
       id="line10" />
    <line
       y2="88"
       marker-end="url(#arrow)"
       x2="142"
       y1="88"
       x1="57"
       id="line11" />
    <line
       y2="123"
       marker-end="url(#arrow)"
       x2="142"
       y1="123"
       x1="57"
       id="line12" />
    <line
       y2="158"
       marker-end="url(#arrow)"
       x2="142"
       y1="158"
       x1="57"
       id="line13" />
  </g>
  <g
     stroke-width="0"
     id="g16"
     style="filter:url(#filter23)">
    <path
       d="m63.81 58.24a8.137 8.137 0 1 1 -16.27 0 8.137 8.137 0 1 1 16.27 0z"
       transform="matrix(.1579 0 0 .1579 43.32 43.77)"
       id="path13" />
    <path
       d="m63.81 58.24a8.137 8.137 0 1 1 -16.27 0 8.137 8.137 0 1 1 16.27 0z"
       transform="matrix(.1579 0 0 .1579 43.32 79.04)"
       id="path14" />
    <path
       d="m63.81 58.24a8.137 8.137 0 1 1 -16.27 0 8.137 8.137 0 1 1 16.27 0z"
       transform="matrix(.1579 0 0 .1579 43.32 114.1)"
       id="path15" />
    <path
       d="m63.81 58.24a8.137 8.137 0 1 1 -16.27 0 8.137 8.137 0 1 1 16.27 0z"
       transform="matrix(.1579 0 0 .1579 43.32 149.3)"
       id="path16" />
  </g>
  <g
     transform="translate(95.7 .03212)"
     stroke-width="0"
     id="g20"
     style="filter:url(#filter21)">
    <path
       d="m63.81 58.24a8.137 8.137 0 0 1 -8.137 8.137 8.137 8.137 0 0 1 -8.137 -8.137 8.137 8.137 0 0 1 8.137 -8.137 8.137 8.137 0 0 1 8.137 8.137z"
       transform="matrix(.1579 0 0 .1579 43.32 43.77)"
       id="path17" />
    <path
       d="m63.81 58.24a8.137 8.137 0 0 1 -8.137 8.137 8.137 8.137 0 0 1 -8.137 -8.137 8.137 8.137 0 0 1 8.137 -8.137 8.137 8.137 0 0 1 8.137 8.137z"
       transform="matrix(.1579 0 0 .1579 43.32 79.04)"
       id="path18" />
    <path
       d="m63.81 58.24a8.137 8.137 0 0 1 -8.137 8.137 8.137 8.137 0 0 1 -8.137 -8.137 8.137 8.137 0 0 1 8.137 -8.137 8.137 8.137 0 0 1 8.137 8.137z"
       transform="matrix(.1579 0 0 .1579 43.32 114.1)"
       id="path19" />
    <path
       d="m63.81 58.24a8.137 8.137 0 0 1 -8.137 8.137 8.137 8.137 0 0 1 -8.137 -8.137 8.137 8.137 0 0 1 8.137 -8.137 8.137 8.137 0 0 1 8.137 8.137z"
       transform="matrix(.1579 0 0 .1579 43.32 149.3)"
       id="path20" />
  </g>
</svg>
